<svg version="1.1" xmlns="http://www.w3.org/2000/svg" viewBox="-65.72707611160322 -525.92686196777 126.42757697565179 1068.3479100860982" fill="none" stroke="black" stroke-width="0.6%" vector-effect="non-scaling-stroke">
    <path d="M 54.76906 -495.04868 L 54.76906 -521.75239 L 9.95801 -524.92686 L 6.79914 -498.44694" />
    <path d="M 54.76906 -521.75239 L 51.61019 -495.27246" />
    <path d="M 1.09664 537.98133 L 59.7005 -494.69933 L -5.02658 -499.28469 L -6.12321 -495.84497 L -64.72708 536.83569 L 0 541.42105 L 58.60386 -491.25961 L -6.12321 -495.84497" />
    <path d="M 1.09664 537.98133 L 0 541.42105" />
    <path d="M 59.7005 -494.69933 L 58.60386 -491.25961" />
    <path d="M 46.31414 -450.87718 L 43.20994 -396.1768 L 41.03766 -377.96722 L 41.03766 -406.64592 L -3.77339 -409.82039 L -3.77339 -381.14169 L 41.03766 -377.96722" />
    <path d="M 1.50309 -454.05165 L 46.31414 -450.87718 L 41.03766 -406.64592" />
    <path d="M 1.50309 -454.05165 L -3.77339 -409.82039" />
</svg>