<svg version="1.1" xmlns="http://www.w3.org/2000/svg" viewBox="-519.6701536966335 -661.0969835031448 1039.3403073932668 1322.1939670062893" fill="none" stroke="black" stroke-width="0.6%" vector-effect="non-scaling-stroke">
    <path d="M -471.95576 241.3682 L -235.76877 -160.75681" />
    <path d="M 9.86897 660.09698 L 518.67015 -206.17292 L 481.82473 -238.19335 L 471.95576 -241.3682 L 233.66824 164.33311 L -211.31107 -222.37524 L 26.97645 -628.07655 L -9.86897 -660.09698 L -518.67015 206.17292 L -481.82473 238.19335 L -243.53721 -167.50796 L 201.4421 219.20039 L -36.84542 624.9017 L 0 656.92214 L 508.80118 -209.34776 L 471.95576 -241.3682" />
    <path d="M 235.76877 160.75681 L -201.4421 -219.20039 L 36.84542 -624.9017 L 0 -656.92214 L -9.86897 -660.09698" />
    <path d="M -37.66268 -578.22148 L -17.43159 -612.66634" />
    <path d="M -19.92275 -562.80463 L -37.66268 -578.22148 L -53.13568 -571.85506 L -25.20003 -619.41749 L 0.30834 -597.24949 L -27.62731 -549.68707 L -53.13568 -571.85506" />
    <path d="M 461.90198 -144.07585 L 444.16205 -159.4927 L 464.39314 -193.93756" />
    <path d="M 36.84542 -624.9017 L 26.97645 -628.07655" />
    <path d="M -211.31107 -222.37524 L -201.4421 -219.20039" />
    <path d="M -471.95576 241.3682 L -481.82473 238.19335" />
    <path d="M 518.67015 -206.17292 L 508.80118 -209.34776" />
    <path d="M 9.86897 660.09698 L 0 656.92214" />
    <path d="M 444.16205 -159.4927 L 428.68905 -153.12628 L 456.6247 -200.6887 L 482.13307 -178.52071 L 454.19742 -130.95829 L 428.68905 -153.12628" />
</svg>